<svg fill="none" height="826" viewBox="0 0 619 826" width="619" xmlns="http://www.w3.org/2000/svg" xmlns:xlink="http://www.w3.org/1999/xlink"><linearGradient id="a" gradientUnits="userSpaceOnUse" x1="220" x2="220" y1="24.6883" y2="825.904"><stop offset="0" stop-color="#ff6868"/><stop offset=".505208" stop-color="#ff7b7b"/><stop offset="1" stop-color="#1238bf"/></linearGradient><path d="m2 813.404h550" stroke="#054a49"/><g fill="#054a49"><path d="m10.16 790.744h-6.17998l3.02-2.94c1.9-1.84 3.11998-3.22 3.11998-5.3v-.1c0-2.36-1.63998-3.98-4.55998-3.98-3 0-4.579998 2.02-4.899998 4.36l2.499998.32c.22-1.48 1-2.52 2.34-2.52 1.24 0 1.9.7 1.9 1.9v.1c0 1.32-1.02 2.56-2.6 4.14l-4.339998 4.38v1.8h9.699978z"/><path d="m12.4342 786.704c0 4.06 2.28 6.4 5.6 6.4 3.44 0 5.52-2.36 5.52-6.44v-1.88c0-4.08-2.2-6.36-5.52-6.36-3.28 0-5.6 2.24-5.6 6.36zm5.6-6.1c1.84 0 2.78 1.48 2.78 4.16v1.9c0 2.88-.88 4.24-2.74 4.24s-2.9-1.34-2.9-4.22v-1.9c0-2.78 1.04-4.18 2.86-4.18z"/><path d="m35.0811 790.744h-6.18l3.02-2.94c1.9-1.84 3.12-3.22 3.12-5.3v-.1c0-2.36-1.64-3.98-4.56-3.98-3 0-4.58 2.02-4.9 4.36l2.5.32c.22-1.48 1-2.52 2.34-2.52 1.24 0 1.9.7 1.9 1.9v.1c0 1.32-1.02 2.56-2.6 4.14l-4.34 4.38v1.8h9.7z"/><path d="m43.0671 792.904h2.64v-2.96h1.96v-2h-1.96v-9.34h-3.48l-5.72 9.5v1.84h6.56zm.04-4.96h-4.08l4.08-6.88z"/><path d="m572.68 813.228v-.5c0-2.8-1.84-4.3-4.28-4.3-1.64 0-2.52.68-3.24 1.6v-.46c.06-2.6.98-3.86 2.38-3.86.94 0 1.5.62 1.62 1.4l3.06-.36c-.22-2-1.88-3.56-4.66-3.56-3.26 0-5.68 2.38-5.68 6.76v1.78c0 3.7 1.68 6.18 5.6 6.18 3.22 0 5.2-1.78 5.2-4.68zm-5.24 2.24c-1.3 0-2.1-.88-2.1-2.28v-.36c0-1.34.86-2.2 2.08-2.2 1.28 0 2.02.84 2.02 2.16v.46c0 1.34-.78 2.22-2 2.22z"/><path d="m578.632 816.648v-.32c0-1.24-.78-2-1.86-2-.94 0-1.74.64-1.74 1.58s.58 1.52 1.62 1.56c-.04.56-.54.88-1.48 1v1.28c2.12-.04 3.46-1.06 3.46-3.1z"/><path d="m591.386 813.628v-.14c0-1.88-1.1-3-2.76-3.32 1.46-.42 2.4-1.46 2.4-3.06v-.06c0-2.4-1.76-3.86-4.72-3.86-3.14 0-4.76 1.98-5 4.08l2.92.34c.14-1 .76-1.94 2-1.94 1.1 0 1.66.62 1.66 1.6v.08c0 1.14-.62 1.78-2 1.78h-1.26v2.38h1.3c1.46 0 2.1.64 2.1 1.92v.14c0 1.18-.68 1.84-1.96 1.84-1.54 0-2.06-1.12-2.18-2.14l-2.98.32c.22 2.36 1.68 4.32 5.26 4.32 3.36 0 5.22-1.68 5.22-4.28z"/><path d="m599.259 817.908c3.1 0 5.32-1.44 5.32-4.2v-.3c0-1.66-.88-2.8-2.52-3.34 1.24-.54 2.04-1.46 2.04-2.92v-.14c0-2.46-2.12-3.82-4.8-3.82-2.62 0-4.82 1.34-4.82 3.84v.14c0 1.42.76 2.4 2.04 2.9-1.64.56-2.56 1.74-2.56 3.42v.3c0 2.76 2.26 4.12 5.3 4.12zm.06-8.8c-.96 0-1.78-.62-1.78-1.72v-.2c0-1.04.78-1.64 1.76-1.64 1 0 1.76.62 1.76 1.64v.2c0 1.1-.74 1.72-1.74 1.72zm-.04 6.38c-1.16 0-2.02-.66-2.02-1.94v-.38c0-1.32.9-1.96 2.04-1.96 1.16 0 2.02.68 2.02 1.92v.42c0 1.26-.86 1.94-2.04 1.94z"/><path d="m612.33 817.908c3.1 0 5.32-1.44 5.32-4.2v-.3c0-1.66-.88-2.8-2.52-3.34 1.24-.54 2.04-1.46 2.04-2.92v-.14c0-2.46-2.12-3.82-4.8-3.82-2.62 0-4.82 1.34-4.82 3.84v.14c0 1.42.76 2.4 2.04 2.9-1.64.56-2.56 1.74-2.56 3.42v.3c0 2.76 2.26 4.12 5.3 4.12zm.06-8.8c-.96 0-1.78-.62-1.78-1.72v-.2c0-1.04.78-1.64 1.76-1.64 1 0 1.76.62 1.76 1.64v.2c0 1.1-.74 1.72-1.74 1.72zm-.04 6.38c-1.16 0-2.02-.66-2.02-1.94v-.38c0-1.32.9-1.96 2.04-1.96 1.16 0 2.02.68 2.02 1.92v.42c0 1.26-.86 1.94-2.04 1.94z"/></g><path d="m2 735.683h550" stroke="#054a49"/><path d="m10.16 713.023h-6.17998l3.02-2.94c1.9-1.84 3.11998-3.22 3.11998-5.3v-.1c0-2.36-1.63998-3.98-4.55998-3.98-3 0-4.579998 2.02-4.899998 4.36l2.499998.32c.22-1.48 1-2.52 2.34-2.52 1.24 0 1.9.7 1.9 1.9v.1c0 1.32-1.02 2.56-2.6 4.14l-4.339998 4.38v1.8h9.699978z" fill="#054a49"/><path d="m12.4342 708.983c0 4.06 2.28 6.4 5.6 6.4 3.44 0 5.52-2.36 5.52-6.44v-1.88c0-4.08-2.2-6.36-5.52-6.36-3.28 0-5.6 2.24-5.6 6.36zm5.6-6.1c1.84 0 2.78 1.48 2.78 4.16v1.9c0 2.88-.88 4.24-2.74 4.24s-2.9-1.34-2.9-4.22v-1.9c0-2.78 1.04-4.18 2.86-4.18z" fill="#054a49"/><path d="m35.0811 713.023h-6.18l3.02-2.94c1.9-1.84 3.12-3.22 3.12-5.3v-.1c0-2.36-1.64-3.98-4.56-3.98-3 0-4.58 2.02-4.9 4.36l2.5.32c.22-1.48 1-2.52 2.34-2.52 1.24 0 1.9.7 1.9 1.9v.1c0 1.32-1.02 2.56-2.6 4.14l-4.34 4.38v1.8h9.7z" fill="#054a49"/><path d="m47.293 711.183v-.14c0-1.92-1.08-3.04-2.76-3.4 1.42-.44 2.36-1.5 2.36-3.1v-.06c0-2.32-1.64-3.78-4.46-3.78-2.9 0-4.48 1.88-4.76 3.92l2.38.32c.22-1.2.98-2.16 2.34-2.16 1.26 0 1.9.72 1.9 1.84v.08c0 1.32-.66 2.04-2.2 2.04h-1.18v2.04h1.22c1.66 0 2.38.72 2.38 2.22v.14c0 1.32-.76 2.14-2.28 2.14-1.68 0-2.38-1.18-2.54-2.4l-2.48.3c.28 2.26 1.76 4.2 5.08 4.2 3.14 0 5-1.6 5-4.2z" fill="#054a49"/><path d="m571.9 734.968v-.26c0-3.04-1.68-4.58-4.08-4.58-1.3 0-2.24.54-2.86 1.34l.62-3.54h5.46v-2.54h-7.76l-1.36 8.4h2.32c.56-.8 1.32-1.3 2.3-1.3 1.24 0 2.02.76 2.02 2.24v.16c0 1.46-.62 2.44-1.86 2.44-1.32 0-1.88-.9-2-1.82l-3.04.3c.18 1.82 1.46 4.1 5.04 4.1 3.2 0 5.2-2 5.2-4.94z" fill="#054a49"/><path d="m577.792 738.648v-.32c0-1.24-.78-2-1.86-2-.94 0-1.74.64-1.74 1.58s.58 1.52 1.62 1.56c-.04.56-.54.88-1.48 1v1.28c2.12-.04 3.46-1.06 3.46-3.1z" fill="#054a49"/><path d="m590.849 733.388v-2.04c0-3.84-1.86-6.16-5.54-6.16-3.22 0-5.28 1.86-5.28 4.7v.48c0 2.8 1.86 4.3 4.36 4.3 1.64 0 2.54-.66 3.18-1.56v.56c-.04 2.58-.92 3.7-2.36 3.7-1.1 0-1.74-.68-1.84-1.48l-3.08.36c.2 2 2.04 3.64 4.88 3.64 3.56 0 5.68-2.18 5.68-6.5zm-5.56-5.8c1.28 0 2.06.9 2.06 2.36v.34c0 1.32-.84 2.16-2.1 2.16-1.28 0-2-.86-2-2.2v-.42c0-1.3.78-2.24 2.04-2.24z" fill="#054a49"/><path d="m593.57 733.468c0 4.12 2.38 6.44 5.82 6.44 3.58 0 5.8-2.32 5.8-6.44v-1.92c0-4.18-2.4-6.36-5.78-6.36-3.32 0-5.84 2.16-5.84 6.38zm5.86-5.66c1.66 0 2.46 1.3 2.46 3.74v1.9c0 2.6-.74 3.82-2.44 3.82-1.68 0-2.56-1.22-2.56-3.8v-1.9c0-2.5.9-3.76 2.54-3.76z" fill="#054a49"/><path d="m612.994 739.908c3.1 0 5.32-1.44 5.32-4.2v-.3c0-1.66-.88-2.8-2.52-3.34 1.24-.54 2.04-1.46 2.04-2.92v-.14c0-2.46-2.12-3.82-4.8-3.82-2.62 0-4.82 1.34-4.82 3.84v.14c0 1.42.76 2.4 2.04 2.9-1.64.56-2.56 1.74-2.56 3.42v.3c0 2.76 2.26 4.12 5.3 4.12zm.06-8.8c-.96 0-1.78-.62-1.78-1.72v-.2c0-1.04.78-1.64 1.76-1.64 1 0 1.76.62 1.76 1.64v.2c0 1.1-.74 1.72-1.74 1.72zm-.04 6.38c-1.16 0-2.02-.66-2.02-1.94v-.38c0-1.32.9-1.96 2.04-1.96 1.16 0 2.02.68 2.02 1.92v.42c0 1.26-.86 1.94-2.04 1.94z" fill="#054a49"/><path d="m2 657.961h550" stroke="#054a49"/><path d="m10.16 635.301h-6.17998l3.02-2.94c1.9-1.84 3.11998-3.22 3.11998-5.3v-.1c0-2.36-1.63998-3.98-4.55998-3.98-3 0-4.579998 2.02-4.899998 4.36l2.499998.32c.22-1.48 1-2.52 2.34-2.52 1.24 0 1.9.7 1.9 1.9v.1c0 1.32-1.02 2.56-2.6 4.14l-4.339998 4.38v1.8h9.699978z" fill="#054a49"/><path d="m12.4342 631.261c0 4.06 2.28 6.4 5.6 6.4 3.44 0 5.52-2.36 5.52-6.44v-1.88c0-4.08-2.2-6.36-5.52-6.36-3.28 0-5.6 2.24-5.6 6.36zm5.6-6.1c1.84 0 2.78 1.48 2.78 4.16v1.9c0 2.88-.88 4.24-2.74 4.24s-2.9-1.34-2.9-4.22v-1.9c0-2.78 1.04-4.18 2.86-4.18z" fill="#054a49"/><path d="m35.0811 635.301h-6.18l3.02-2.94c1.9-1.84 3.12-3.22 3.12-5.3v-.1c0-2.36-1.64-3.98-4.56-3.98-3 0-4.58 2.02-4.9 4.36l2.5.32c.22-1.48 1-2.52 2.34-2.52 1.24 0 1.9.7 1.9 1.9v.1c0 1.32-1.02 2.56-2.6 4.14l-4.34 4.38v1.8h9.7z" fill="#054a49"/><path d="m46.653 635.301h-6.18l3.02-2.94c1.9-1.84 3.12-3.22 3.12-5.3v-.1c0-2.36-1.64-3.98-4.56-3.98-3 0-4.58 2.02-4.9 4.36l2.5.32c.22-1.48 1-2.52 2.34-2.52 1.24 0 1.9.7 1.9 1.9v.1c0 1.32-1.02 2.56-2.6 4.14l-4.34 4.38v1.8h9.7z" fill="#054a49"/><path d="m571.9 657.968v-.26c0-3.04-1.68-4.58-4.08-4.58-1.3 0-2.24.54-2.86 1.34l.62-3.54h5.46v-2.54h-7.76l-1.36 8.4h2.32c.56-.8 1.32-1.3 2.3-1.3 1.24 0 2.02.76 2.02 2.24v.16c0 1.46-.62 2.44-1.86 2.44-1.32 0-1.88-.9-2-1.82l-3.04.3c.18 1.82 1.46 4.1 5.04 4.1 3.2 0 5.2-2 5.2-4.94z" fill="#054a49"/><path d="m577.792 661.648v-.32c0-1.24-.78-2-1.86-2-.94 0-1.74.64-1.74 1.58s.58 1.52 1.62 1.56c-.04.56-.54.88-1.48 1v1.28c2.12-.04 3.46-1.06 3.46-3.1z" fill="#054a49"/><path d="m586.368 662.688h3.2v-2.9h1.94v-2.34h-1.94v-9.06h-4.14l-5.62 9.34v2.06h6.56zm.06-5.24h-3.62l3.62-6.12z" fill="#054a49"/><path d="m603.428 660.148h-5.86l2.64-2.46c1.9-1.76 3.14-3.14 3.14-5.24v-.14c0-2.38-1.68-4.12-4.82-4.12-3.24 0-4.84 2.14-5.14 4.58l3.02.32c.18-1.26.8-2.32 2.02-2.32 1.06 0 1.64.62 1.64 1.68v.1c0 1.28-1.16 2.54-2.76 4.1l-4.12 3.98v2.06h10.24z" fill="#054a49"/><path d="m611.805 662.688h3.2v-2.9h1.94v-2.34h-1.94v-9.06h-4.14l-5.62 9.34v2.06h6.56zm.06-5.24h-3.62l3.62-6.12z" fill="#054a49"/><path d="m2 580.24h550" stroke="#054a49"/><path d="m10.16 556.58h-6.17998l3.02-2.94c1.9-1.84 3.11998-3.22 3.11998-5.3v-.1c0-2.36-1.63998-3.98-4.55998-3.98-3 0-4.579998 2.02-4.899998 4.36l2.499998.32c.22-1.48 1-2.52 2.34-2.52 1.24 0 1.9.7 1.9 1.9v.1c0 1.32-1.02 2.56-2.6 4.14l-4.339998 4.38v1.8h9.699978z" fill="#054a49"/><path d="m12.4342 552.54c0 4.06 2.28 6.4 5.6 6.4 3.44 0 5.52-2.36 5.52-6.44v-1.88c0-4.08-2.2-6.36-5.52-6.36-3.28 0-5.6 2.24-5.6 6.36zm5.6-6.1c1.84 0 2.78 1.48 2.78 4.16v1.9c0 2.88-.88 4.24-2.74 4.24s-2.9-1.34-2.9-4.22v-1.9c0-2.78 1.04-4.18 2.86-4.18z" fill="#054a49"/><path d="m35.0811 556.58h-6.18l3.02-2.94c1.9-1.84 3.12-3.22 3.12-5.3v-.1c0-2.36-1.64-3.98-4.56-3.98-3 0-4.58 2.02-4.9 4.36l2.5.32c.22-1.48 1-2.52 2.34-2.52 1.24 0 1.9.7 1.9 1.9v.1c0 1.32-1.02 2.56-2.6 4.14l-4.34 4.38v1.8h9.7z" fill="#054a49"/><path d="m45.3739 556.64h-2.62v-12.2h-2.32c-.58 1.32-1.9 2.1-3.18 2.22v2.34c1.18-.04 2.3-.48 2.8-1.18v8.82h-2.66v2.1h7.98z" fill="#054a49"/><path d="m568.02 584.688h3.2v-2.9h1.94v-2.34h-1.94v-9.06h-4.14l-5.62 9.34v2.06h6.56zm.06-5.24h-3.62l3.62-6.12z" fill="#054a49"/><path d="m579.081 583.648v-.32c0-1.24-.78-2-1.86-2-.94 0-1.74.64-1.74 1.58s.58 1.52 1.62 1.56c-.04.56-.54.88-1.48 1v1.28c2.12-.04 3.46-1.06 3.46-3.1z" fill="#054a49"/><path d="m586.853 584.908c3.1 0 5.32-1.44 5.32-4.2v-.3c0-1.66-.88-2.8-2.52-3.34 1.24-.54 2.04-1.46 2.04-2.92v-.14c0-2.46-2.12-3.82-4.8-3.82-2.62 0-4.82 1.34-4.82 3.84v.14c0 1.42.76 2.4 2.04 2.9-1.64.56-2.56 1.74-2.56 3.42v.3c0 2.76 2.26 4.12 5.3 4.12zm.06-8.8c-.96 0-1.78-.62-1.78-1.72v-.2c0-1.04.78-1.64 1.76-1.64 1 0 1.76.62 1.76 1.64v.2c0 1.1-.74 1.72-1.74 1.72zm-.04 6.38c-1.16 0-2.02-.66-2.02-1.94v-.38c0-1.32.9-1.96 2.04-1.96 1.16 0 2.02.68 2.02 1.92v.42c0 1.26-.86 1.94-2.04 1.94z" fill="#054a49"/><path d="m605.286 578.388v-2.04c0-3.84-1.86-6.16-5.54-6.16-3.22 0-5.28 1.86-5.28 4.7v.48c0 2.8 1.86 4.3 4.36 4.3 1.64 0 2.54-.66 3.18-1.56v.56c-.04 2.58-.92 3.7-2.36 3.7-1.1 0-1.74-.68-1.84-1.48l-3.08.36c.2 2 2.04 3.64 4.88 3.64 3.56 0 5.68-2.18 5.68-6.5zm-5.56-5.8c1.28 0 2.06.9 2.06 2.36v.34c0 1.32-.84 2.16-2.1 2.16-1.28 0-2-.86-2-2.2v-.42c0-1.3.78-2.24 2.04-2.24z" fill="#054a49"/><path d="m616.43 582.168h-2.56v-11.78h-2.82c-.6 1.32-1.86 2.08-3.14 2.2v2.88c1.16-.04 2.24-.48 2.68-1.12v7.82h-2.58v2.52h8.42z" fill="#054a49"/><path d="m2 501.518h550" stroke="#054a49"/><path d="m2 501.518h550" stroke="#054a49"/><path d="m10.16 478.858h-6.17998l3.02-2.94c1.9-1.84 3.11998-3.22 3.11998-5.3v-.1c0-2.36-1.63998-3.98-4.55998-3.98-3 0-4.579998 2.02-4.899998 4.36l2.499998.32c.22-1.48 1-2.52 2.34-2.52 1.24 0 1.9.7 1.9 1.9v.1c0 1.32-1.02 2.56-2.6 4.14l-4.339998 4.38v1.8h9.699978z" fill="#054a49"/><path d="m12.4342 474.818c0 4.06 2.28 6.4 5.6 6.4 3.44 0 5.52-2.36 5.52-6.44v-1.88c0-4.08-2.2-6.36-5.52-6.36-3.28 0-5.6 2.24-5.6 6.36zm5.6-6.1c1.84 0 2.78 1.48 2.78 4.16v1.9c0 2.88-.88 4.24-2.74 4.24s-2.9-1.34-2.9-4.22v-1.9c0-2.78 1.04-4.18 2.86-4.18z" fill="#054a49"/><path d="m35.0811 478.858h-6.18l3.02-2.94c1.9-1.84 3.12-3.22 3.12-5.3v-.1c0-2.36-1.64-3.98-4.56-3.98-3 0-4.58 2.02-4.9 4.36l2.5.32c.22-1.48 1-2.52 2.34-2.52 1.24 0 1.9.7 1.9 1.9v.1c0 1.32-1.02 2.56-2.6 4.14l-4.34 4.38v1.8h9.7z" fill="#054a49"/><path d="m37.3553 474.818c0 4.06 2.28 6.4 5.6 6.4 3.44 0 5.52-2.36 5.52-6.44v-1.88c0-4.08-2.2-6.36-5.52-6.36-3.28 0-5.6 2.24-5.6 6.36zm5.6-6.1c1.84 0 2.78 1.48 2.78 4.16v1.9c0 2.88-.88 4.24-2.74 4.24s-2.9-1.34-2.9-4.22v-1.9c0-2.78 1.04-4.18 2.86-4.18z" fill="#054a49"/><path d="m568.02 505.688h3.2v-2.9h1.94v-2.34h-1.94v-9.06h-4.14l-5.62 9.34v2.06h6.56zm.06-5.24h-3.62l3.62-6.12z" fill="#054a49"/><path d="m579.081 504.648v-.32c0-1.24-.78-2-1.86-2-.94 0-1.74.64-1.74 1.58s.58 1.52 1.62 1.56c-.04.56-.54.88-1.48 1v1.28c2.12-.04 3.46-1.06 3.46-3.1z" fill="#054a49"/><path d="m591.392 503.148h-5.86l2.64-2.46c1.9-1.76 3.14-3.14 3.14-5.24v-.14c0-2.38-1.68-4.12-4.82-4.12-3.24 0-4.84 2.14-5.14 4.58l3.02.32c.18-1.26.8-2.32 2.02-2.32 1.06 0 1.64.62 1.64 1.68v.1c0 1.28-1.16 2.54-2.76 4.1l-4.12 3.98v2.06h10.24z" fill="#054a49"/><path d="m599.142 505.908c3.1 0 5.32-1.44 5.32-4.2v-.3c0-1.66-.88-2.8-2.52-3.34 1.24-.54 2.04-1.46 2.04-2.92v-.14c0-2.46-2.12-3.82-4.8-3.82-2.62 0-4.82 1.34-4.82 3.84v.14c0 1.42.76 2.4 2.04 2.9-1.64.56-2.56 1.74-2.56 3.42v.3c0 2.76 2.26 4.12 5.3 4.12zm.06-8.8c-.96 0-1.78-.62-1.78-1.72v-.2c0-1.04.78-1.64 1.76-1.64 1 0 1.76.62 1.76 1.64v.2c0 1.1-.74 1.72-1.74 1.72zm-.04 6.38c-1.16 0-2.02-.66-2.02-1.94v-.38c0-1.32.9-1.96 2.04-1.96 1.16 0 2.02.68 2.02 1.92v.42c0 1.26-.86 1.94-2.04 1.94z" fill="#054a49"/><path d="m606.973 499.468c0 4.12 2.38 6.44 5.82 6.44 3.58 0 5.8-2.32 5.8-6.44v-1.92c0-4.18-2.4-6.36-5.78-6.36-3.32 0-5.84 2.16-5.84 6.38zm5.86-5.66c1.66 0 2.46 1.3 2.46 3.74v1.9c0 2.6-.74 3.82-2.44 3.82-1.68 0-2.56-1.22-2.56-3.8v-1.9c0-2.5.9-3.76 2.54-3.76z" fill="#054a49"/><path d="m2 427.796h550" stroke="#054a49"/><path d="m10.16 401.136h-6.17998l3.02-2.94c1.9-1.84 3.11998-3.22 3.11998-5.3v-.1c0-2.36-1.63998-3.98-4.55998-3.98-3 0-4.579998 2.02-4.899998 4.36l2.499998.32c.22-1.48 1-2.52 2.34-2.52 1.24 0 1.9.7 1.9 1.9v.1c0 1.32-1.02 2.56-2.6 4.14l-4.339998 4.38v1.8h9.699978z" fill="#054a49"/><path d="m12.4342 397.096c0 4.06 2.28 6.4 5.6 6.4 3.44 0 5.52-2.36 5.52-6.44v-1.88c0-4.08-2.2-6.36-5.52-6.36-3.28 0-5.6 2.24-5.6 6.36zm5.6-6.1c1.84 0 2.78 1.48 2.78 4.16v1.9c0 2.88-.88 4.24-2.74 4.24s-2.9-1.34-2.9-4.22v-1.9c0-2.78 1.04-4.18 2.86-4.18z" fill="#054a49"/><path d="m33.8411 401.196h-2.62v-12.2h-2.32c-.58 1.32-1.9 2.1-3.18 2.22v2.34c1.18-.04 2.3-.48 2.8-1.18v8.82h-2.66v2.1h7.98z" fill="#054a49"/><path d="m45.426 396.896v-2.04c0-3.82-1.78-6.06-5.24-6.06-3.08 0-5.02 1.84-5.02 4.66v.44c0 2.72 1.82 4.34 4.32 4.34 1.6 0 2.6-.68 3.24-1.68v.58c-.02 2.92-1.02 4.22-2.68 4.22-1.32 0-2.04-.86-2.16-1.72l-2.54.34c.24 1.84 1.96 3.5 4.66 3.5 3.42 0 5.42-2.22 5.42-6.58zm-5.26-6.06c1.46 0 2.4.98 2.4 2.74v.28c0 1.46-1 2.48-2.42 2.48-1.46 0-2.32-1-2.32-2.54v-.42c0-1.5.92-2.54 2.34-2.54z" fill="#054a49"/><path d="m572.12 424.628v-.14c0-1.88-1.1-3-2.76-3.32 1.46-.42 2.4-1.46 2.4-3.06v-.06c0-2.4-1.76-3.86-4.72-3.86-3.14 0-4.76 1.98-5 4.08l2.92.34c.14-1 .76-1.94 2-1.94 1.1 0 1.66.62 1.66 1.6v.08c0 1.14-.62 1.78-2 1.78h-1.26v2.38h1.3c1.46 0 2.1.64 2.1 1.92v.14c0 1.18-.68 1.84-1.96 1.84-1.54 0-2.06-1.12-2.18-2.14l-2.98.32c.22 2.36 1.68 4.32 5.26 4.32 3.36 0 5.22-1.68 5.22-4.28z" fill="#054a49"/><path d="m578.241 427.648v-.32c0-1.24-.78-2-1.86-2-.94 0-1.74.64-1.74 1.58s.58 1.52 1.62 1.56c-.04.56-.54.88-1.48 1v1.28c2.12-.04 3.46-1.06 3.46-3.1z" fill="#054a49"/><path d="m590.995 424.628v-.14c0-1.88-1.1-3-2.76-3.32 1.46-.42 2.4-1.46 2.4-3.06v-.06c0-2.4-1.76-3.86-4.72-3.86-3.14 0-4.76 1.98-5 4.08l2.92.34c.14-1 .76-1.94 2-1.94 1.1 0 1.66.62 1.66 1.6v.08c0 1.14-.62 1.78-2 1.78h-1.26v2.38h1.3c1.46 0 2.1.64 2.1 1.92v.14c0 1.18-.68 1.84-1.96 1.84-1.54 0-2.06-1.12-2.18-2.14l-2.98.32c.22 2.36 1.68 4.32 5.26 4.32 3.36 0 5.22-1.68 5.22-4.28z" fill="#054a49"/><path d="m603.709 423.968v-.26c0-3.04-1.68-4.58-4.08-4.58-1.3 0-2.24.54-2.86 1.34l.62-3.54h5.46v-2.54h-7.76l-1.36 8.4h2.32c.56-.8 1.32-1.3 2.3-1.3 1.24 0 2.02.76 2.02 2.24v.16c0 1.46-.62 2.44-1.86 2.44-1.32 0-1.88-.9-2-1.82l-3.04.3c.18 1.82 1.46 4.1 5.04 4.1 3.2 0 5.2-2 5.2-4.94z" fill="#054a49"/><path d="m612.469 428.688h3.2v-2.9h1.94v-2.34h-1.94v-9.06h-4.14l-5.62 9.34v2.06h6.56zm.06-5.24h-3.62l3.62-6.12z" fill="#054a49"/><path d="m2 346.075h550" stroke="#054a49"/><path d="m10.16 323.415h-6.17998l3.02-2.94c1.9-1.84 3.11998-3.22 3.11998-5.3v-.1c0-2.36-1.63998-3.98-4.55998-3.98-3 0-4.579998 2.02-4.899998 4.36l2.499998.32c.22-1.48 1-2.52 2.34-2.52 1.24 0 1.9.7 1.9 1.9v.1c0 1.32-1.02 2.56-2.6 4.14l-4.339998 4.38v1.8h9.699978z" fill="#054a49"/><path d="m12.4342 319.375c0 4.06 2.28 6.4 5.6 6.4 3.44 0 5.52-2.36 5.52-6.44v-1.88c0-4.08-2.2-6.36-5.52-6.36-3.28 0-5.6 2.24-5.6 6.36zm5.6-6.1c1.84 0 2.78 1.48 2.78 4.16v1.9c0 2.88-.88 4.24-2.74 4.24s-2.9-1.34-2.9-4.22v-1.9c0-2.78 1.04-4.18 2.86-4.18z" fill="#054a49"/><path d="m33.8411 323.475h-2.62v-12.2h-2.32c-.58 1.32-1.9 2.1-3.18 2.22v2.34c1.18-.04 2.3-.48 2.8-1.18v8.82h-2.66v2.1h7.98z" fill="#054a49"/><path d="m40.3246 325.775c2.8 0 5.04-1.4 5.04-4.18v-.26c0-1.72-.94-2.88-2.56-3.44 1.26-.52 2.08-1.48 2.08-2.94v-.12c0-2.38-2.08-3.74-4.52-3.74s-4.58 1.34-4.58 3.76v.12c0 1.44.78 2.44 2.08 2.94-1.58.54-2.58 1.72-2.58 3.48v.26c0 2.76 2.3 4.12 5.04 4.12zm.06-8.72c-1.1 0-2.02-.7-2.02-1.94v-.16c0-1.18.86-1.86 2-1.86 1.12 0 1.98.7 1.98 1.84v.16c0 1.26-.82 1.96-1.96 1.96zm-.04 6.66c-1.3 0-2.34-.76-2.34-2.24v-.32c0-1.5 1.06-2.24 2.36-2.24s2.32.78 2.32 2.22v.34c0 1.48-1.02 2.24-2.34 2.24z" fill="#054a49"/><path d="m571.58 348.148h-5.86l2.64-2.46c1.9-1.76 3.14-3.14 3.14-5.24v-.14c0-2.38-1.68-4.12-4.82-4.12-3.24 0-4.84 2.14-5.14 4.58l3.02.32c.18-1.26.8-2.32 2.02-2.32 1.06 0 1.64.62 1.64 1.68v.1c0 1.28-1.16 2.54-2.76 4.1l-4.12 3.98v2.06h10.24z" fill="#054a49"/><path d="m577.948 349.648v-.32c0-1.24-.78-2-1.86-2-.94 0-1.74.64-1.74 1.58s.58 1.52 1.62 1.56c-.04.56-.54.88-1.48 1v1.28c2.12-.04 3.46-1.06 3.46-3.1z" fill="#054a49"/><path d="m591.005 344.388v-2.04c0-3.84-1.86-6.16-5.54-6.16-3.22 0-5.28 1.86-5.28 4.7v.48c0 2.8 1.86 4.3 4.36 4.3 1.64 0 2.54-.66 3.18-1.56v.56c-.04 2.58-.92 3.7-2.36 3.7-1.1 0-1.74-.68-1.84-1.48l-3.08.36c.2 2 2.04 3.64 4.88 3.64 3.56 0 5.68-2.18 5.68-6.5zm-5.56-5.8c1.28 0 2.06.9 2.06 2.36v.34c0 1.32-.84 2.16-2.1 2.16-1.28 0-2-.86-2-2.2v-.42c0-1.3.78-2.24 2.04-2.24z" fill="#054a49"/><path d="m598.849 350.908c3.1 0 5.32-1.44 5.32-4.2v-.3c0-1.66-.88-2.8-2.52-3.34 1.24-.54 2.04-1.46 2.04-2.92v-.14c0-2.46-2.12-3.82-4.8-3.82-2.62 0-4.82 1.34-4.82 3.84v.14c0 1.42.76 2.4 2.04 2.9-1.64.56-2.56 1.74-2.56 3.42v.3c0 2.76 2.26 4.12 5.3 4.12zm.06-8.8c-.96 0-1.78-.62-1.78-1.72v-.2c0-1.04.78-1.64 1.76-1.64 1 0 1.76.62 1.76 1.64v.2c0 1.1-.74 1.72-1.74 1.72zm-.04 6.38c-1.16 0-2.02-.66-2.02-1.94v-.38c0-1.32.9-1.96 2.04-1.96 1.16 0 2.02.68 2.02 1.92v.42c0 1.26-.86 1.94-2.04 1.94z" fill="#054a49"/><path d="m616.342 348.148h-5.86l2.64-2.46c1.9-1.76 3.14-3.14 3.14-5.24v-.14c0-2.38-1.68-4.12-4.82-4.12-3.24 0-4.84 2.14-5.14 4.58l3.02.32c.18-1.26.8-2.32 2.02-2.32 1.06 0 1.64.62 1.64 1.68v.1c0 1.28-1.16 2.54-2.76 4.1l-4.12 3.98v2.06h10.24z" fill="#054a49"/><path d="m2 268.353h550" stroke="#054a49"/><path d="m10.16 245.693h-6.17998l3.02-2.94c1.9-1.84 3.11998-3.22 3.11998-5.3v-.1c0-2.36-1.63998-3.98-4.55998-3.98-3 0-4.579998 2.02-4.899998 4.36l2.499998.32c.22-1.48 1-2.52 2.34-2.52 1.24 0 1.9.7 1.9 1.9v.1c0 1.32-1.02 2.56-2.6 4.14l-4.339998 4.38v1.8h9.699978z" fill="#054a49"/><path d="m12.4342 241.653c0 4.06 2.28 6.4 5.6 6.4 3.44 0 5.52-2.36 5.52-6.44v-1.88c0-4.08-2.2-6.36-5.52-6.36-3.28 0-5.6 2.24-5.6 6.36zm5.6-6.1c1.84 0 2.78 1.48 2.78 4.16v1.9c0 2.88-.88 4.24-2.74 4.24s-2.9-1.34-2.9-4.22v-1.9c0-2.78 1.04-4.18 2.86-4.18z" fill="#054a49"/><path d="m33.8411 245.753h-2.62v-12.2h-2.32c-.58 1.32-1.9 2.1-3.18 2.22v2.34c1.18-.04 2.3-.48 2.8-1.18v8.82h-2.66v2.1h7.98z" fill="#054a49"/><path d="m44.186 235.333v-1.78h-9.4v2.26h6.54l-4.64 12.04h2.76z" fill="#054a49"/><path d="m571.58 270.148h-5.86l2.64-2.46c1.9-1.76 3.14-3.14 3.14-5.24v-.14c0-2.38-1.68-4.12-4.82-4.12-3.24 0-4.84 2.14-5.14 4.58l3.02.32c.18-1.26.8-2.32 2.02-2.32 1.06 0 1.64.62 1.64 1.68v.1c0 1.28-1.16 2.54-2.76 4.1l-4.12 3.98v2.06h10.24z" fill="#054a49"/><path d="m577.948 271.648v-.32c0-1.24-.78-2-1.86-2-.94 0-1.74.64-1.74 1.58s.58 1.52 1.62 1.56c-.04.56-.54.88-1.48 1v1.28c2.12-.04 3.46-1.06 3.46-3.1z" fill="#054a49"/><path d="m590.702 268.628v-.14c0-1.88-1.1-3-2.76-3.32 1.46-.42 2.4-1.46 2.4-3.06v-.06c0-2.4-1.76-3.86-4.72-3.86-3.14 0-4.76 1.98-5 4.08l2.92.34c.14-1 .76-1.94 2-1.94 1.1 0 1.66.62 1.66 1.6v.08c0 1.14-.62 1.78-2 1.78h-1.26v2.38h1.3c1.46 0 2.1.64 2.1 1.92v.14c0 1.18-.68 1.84-1.96 1.84-1.54 0-2.06-1.12-2.18-2.14l-2.98.32c.22 2.36 1.68 4.32 5.26 4.32 3.36 0 5.22-1.68 5.22-4.28z" fill="#054a49"/><path d="m598.576 272.908c3.1 0 5.32-1.44 5.32-4.2v-.3c0-1.66-.88-2.8-2.52-3.34 1.24-.54 2.04-1.46 2.04-2.92v-.14c0-2.46-2.12-3.82-4.8-3.82-2.62 0-4.82 1.34-4.82 3.84v.14c0 1.42.76 2.4 2.04 2.9-1.64.56-2.56 1.74-2.56 3.42v.3c0 2.76 2.26 4.12 5.3 4.12zm.06-8.8c-.96 0-1.78-.62-1.78-1.72v-.2c0-1.04.78-1.64 1.76-1.64 1 0 1.76.62 1.76 1.64v.2c0 1.1-.74 1.72-1.74 1.72zm-.04 6.38c-1.16 0-2.02-.66-2.02-1.94v-.38c0-1.32.9-1.96 2.04-1.96 1.16 0 2.02.68 2.02 1.92v.42c0 1.26-.86 1.94-2.04 1.94z" fill="#054a49"/><path d="m616.068 270.148h-5.86l2.64-2.46c1.9-1.76 3.14-3.14 3.14-5.24v-.14c0-2.38-1.68-4.12-4.82-4.12-3.24 0-4.84 2.14-5.14 4.58l3.02.32c.18-1.26.8-2.32 2.02-2.32 1.06 0 1.64.62 1.64 1.68v.1c0 1.28-1.16 2.54-2.76 4.1l-4.12 3.98v2.06h10.24z" fill="#054a49"/><path d="m2 191.632h550" stroke="#054a49"/><path d="m10.16 167.972h-6.17998l3.02-2.94c1.9-1.84 3.11998-3.22 3.11998-5.3v-.1c0-2.36-1.63998-3.98-4.55998-3.98-3 0-4.579998 2.02-4.899998 4.36l2.499998.32c.22-1.48 1-2.52 2.34-2.52 1.24 0 1.9.7 1.9 1.9v.1c0 1.32-1.02 2.56-2.6 4.14l-4.339998 4.38v1.8h9.699978z" fill="#054a49"/><path d="m12.4342 163.932c0 4.06 2.28 6.4 5.6 6.4 3.44 0 5.52-2.36 5.52-6.44v-1.88c0-4.08-2.2-6.36-5.52-6.36-3.28 0-5.6 2.24-5.6 6.36zm5.6-6.1c1.84 0 2.78 1.48 2.78 4.16v1.9c0 2.88-.88 4.24-2.74 4.24s-2.9-1.34-2.9-4.22v-1.9c0-2.78 1.04-4.18 2.86-4.18z" fill="#054a49"/><path d="m33.8411 168.032h-2.62v-12.2h-2.32c-.58 1.32-1.9 2.1-3.18 2.22v2.34c1.18-.04 2.3-.48 2.8-1.18v8.82h-2.66v2.1h7.98z" fill="#054a49"/><path d="m45.6446 165.692v-.46c0-2.72-1.8-4.34-4.28-4.34-1.58 0-2.56.7-3.28 1.68v-.44c.06-2.94 1.12-4.36 2.72-4.36 1.18 0 1.76.72 1.9 1.6l2.52-.34c-.26-1.88-1.8-3.38-4.38-3.38-3.18 0-5.46 2.38-5.46 6.9v1.68c0 3.58 1.52 6.1 5.3 6.1 3.06 0 4.96-1.8 4.96-4.64zm-5 2.58c-1.46 0-2.42-.96-2.42-2.66v-.28c0-1.54 1.02-2.54 2.4-2.54 1.46 0 2.32.94 2.32 2.5v.44c0 1.54-.9 2.54-2.3 2.54z" fill="#054a49"/><path d="m570.34 192.168h-2.56v-11.78h-2.82c-.6 1.32-1.86 2.08-3.14 2.2v2.88c1.16-.04 2.24-.48 2.68-1.12v7.82h-2.58v2.52h8.42z" fill="#054a49"/><path d="m575.8 193.648v-.32c0-1.24-.78-2-1.86-2-.94 0-1.74.64-1.74 1.58s.58 1.52 1.62 1.56c-.04.56-.54.88-1.48 1v1.28c2.12-.04 3.46-1.06 3.46-3.1z" fill="#054a49"/><path d="m583.572 194.908c3.1 0 5.32-1.44 5.32-4.2v-.3c0-1.66-.88-2.8-2.52-3.34 1.24-.54 2.04-1.46 2.04-2.92v-.14c0-2.46-2.12-3.82-4.8-3.82-2.62 0-4.82 1.34-4.82 3.84v.14c0 1.42.76 2.4 2.04 2.9-1.64.56-2.56 1.74-2.56 3.42v.3c0 2.76 2.26 4.12 5.3 4.12zm.06-8.8c-.96 0-1.78-.62-1.78-1.72v-.2c0-1.04.78-1.64 1.76-1.64 1 0 1.76.62 1.76 1.64v.2c0 1.1-.74 1.72-1.74 1.72zm-.04 6.38c-1.16 0-2.02-.66-2.02-1.94v-.38c0-1.32.9-1.96 2.04-1.96 1.16 0 2.02.68 2.02 1.92v.42c0 1.26-.86 1.94-2.04 1.94z" fill="#054a49"/><path d="m597.661 194.688h3.2v-2.9h1.94v-2.34h-1.94v-9.06h-4.14l-5.62 9.34v2.06h6.56zm.06-5.24h-3.62l3.62-6.12z" fill="#054a49"/><path d="m615.197 189.968v-.26c0-3.04-1.68-4.58-4.08-4.58-1.3 0-2.24.54-2.86 1.34l.62-3.54h5.46v-2.54h-7.76l-1.36 8.4h2.32c.56-.8 1.32-1.3 2.3-1.3 1.24 0 2.02.76 2.02 2.24v.16c0 1.46-.62 2.44-1.86 2.44-1.32 0-1.88-.9-2-1.82l-3.04.3c.18 1.82 1.46 4.1 5.04 4.1 3.2 0 5.2-2 5.2-4.94z" fill="#054a49"/><path d="m2 112.91h550" stroke="#054a49"/><path d="m10.16 90.2499h-6.17998l3.02-2.94c1.9-1.84 3.11998-3.22 3.11998-5.3v-.1c0-2.36-1.63998-3.98-4.55998-3.98-3 0-4.579998 2.02-4.899998 4.36l2.499998.32c.22-1.48 1-2.52 2.34-2.52 1.24 0 1.9.7 1.9 1.9v.1c0 1.32-1.02 2.56-2.6 4.14l-4.339998 4.38v1.8h9.699978z" fill="#054a49"/><path d="m12.4342 86.2099c0 4.06 2.28 6.4 5.6 6.4 3.44 0 5.52-2.36 5.52-6.44v-1.88c0-4.08-2.2-6.36-5.52-6.36-3.28 0-5.6 2.24-5.6 6.36zm5.6-6.1c1.84 0 2.78 1.48 2.78 4.16v1.9c0 2.88-.88 4.24-2.74 4.24s-2.9-1.34-2.9-4.22v-1.9c0-2.78 1.04-4.18 2.86-4.18z" fill="#054a49"/><path d="m33.8411 90.3099h-2.62v-12.2h-2.32c-.58 1.32-1.9 2.1-3.18 2.22v2.34c1.18-.04 2.3-.48 2.8-1.18v8.82h-2.66v2.1h7.98z" fill="#054a49"/><path d="m44.9646 87.7099v-.24c0-3-1.72-4.58-4.12-4.58-1.28 0-2.2.52-2.8 1.34l.66-3.98h5.44v-2.14h-7.34l-1.34 8.18h1.96c.6-.88 1.42-1.4 2.46-1.4 1.44 0 2.32.92 2.32 2.6v.16c0 1.68-.78 2.8-2.22 2.8-1.5 0-2.2-1-2.32-2.06l-2.52.28c.2 1.86 1.54 3.94 4.86 3.94 2.96 0 4.96-1.96 4.96-4.9z" fill="#054a49"/><path d="m570.34 115.168h-2.56v-11.78h-2.82c-.6 1.32-1.86 2.08-3.14 2.2v2.88c1.16-.04 2.24-.48 2.68-1.12v7.82h-2.58v2.52h8.42z" fill="#054a49"/><path d="m575.8 116.648v-.32c0-1.24-.78-2-1.86-2-.94 0-1.74.64-1.74 1.58s.58 1.52 1.62 1.56c-.04.56-.54.88-1.48 1v1.28c2.12-.04 3.46-1.06 3.46-3.1z" fill="#054a49"/><path d="m588.431 112.968v-.26c0-3.04-1.68-4.58-4.08-4.58-1.3 0-2.24.54-2.86 1.34l.62-3.54h5.46v-2.54h-7.76l-1.36 8.4h2.32c.56-.8 1.32-1.3 2.3-1.3 1.24 0 2.02.76 2.02 2.24v.16c0 1.46-.62 2.44-1.86 2.44-1.32 0-1.88-.9-2-1.82l-3.04.3c.18 1.82 1.46 4.1 5.04 4.1 3.2 0 5.2-2 5.2-4.94z" fill="#054a49"/><path d="m597.192 117.688h3.2v-2.9h1.94v-2.34h-1.94v-9.06h-4.14l-5.62 9.34v2.06h6.56zm.06-5.24h-3.62l3.62-6.12z" fill="#054a49"/><path d="m609.908 117.908c3.1 0 5.32-1.44 5.32-4.2v-.3c0-1.66-.88-2.8-2.52-3.34 1.24-.54 2.04-1.46 2.04-2.92v-.14c0-2.46-2.12-3.82-4.8-3.82-2.62 0-4.82 1.34-4.82 3.84v.14c0 1.42.76 2.4 2.04 2.9-1.64.56-2.56 1.74-2.56 3.42v.3c0 2.76 2.26 4.12 5.3 4.12zm.06-8.8c-.96 0-1.78-.62-1.78-1.72v-.2c0-1.04.78-1.64 1.76-1.64 1 0 1.76.62 1.76 1.64v.2c0 1.1-.74 1.72-1.74 1.72zm-.04 6.38c-1.16 0-2.02-.66-2.02-1.94v-.38c0-1.32.9-1.96 2.04-1.96 1.16 0 2.02.68 2.02 1.92v.42c0 1.26-.86 1.94-2.04 1.94z" fill="#054a49"/><path d="m2 35.1883h550" stroke="#054a49"/><path d="m10.16 12.5283h-6.17998l3.02-2.93999c1.9-1.84 3.11998-3.22 3.11998-5.3v-.1c0-2.36-1.63998-3.979997-4.55998-3.979997-3 0-4.579998 2.019997-4.899998 4.359997l2.499998.32c.22-1.48 1-2.52 2.34-2.52 1.24 0 1.9.7 1.9 1.9v.1c0 1.32-1.02 2.56-2.6 4.14l-4.339998 4.37999v1.8h9.699978z" fill="#054a49"/><path d="m12.4342 8.48831c0 4.05999 2.28 6.39999 5.6 6.39999 3.44 0 5.52-2.36 5.52-6.43999v-1.88c0-4.08-2.2-6.359997-5.52-6.359997-3.28 0-5.6 2.239997-5.6 6.359997zm5.6-6.1c1.84 0 2.78 1.48 2.78 4.16v1.9c0 2.87999-.88 4.23999-2.74 4.23999s-2.9-1.34-2.9-4.21999v-1.9c0-2.78 1.04-4.18 2.86-4.18z" fill="#054a49"/><path d="m33.8411 12.5883h-2.62v-12.199987h-2.32c-.58 1.319997-1.9 2.099997-3.18 2.219997v2.34c1.18-.04 2.3-.48 2.8-1.18v8.81999h-2.66v2.1h7.98z" fill="#054a49"/><path d="m41.2506 14.6883h2.64v-2.96h1.96v-1.99999h-1.96v-9.339997h-3.48l-5.72 9.499997v1.83999h6.56zm.04-4.95999h-4.08l4.08-6.88z" fill="#054a49"/><path d="m570.34 37.1683h-2.56v-11.78h-2.82c-.6 1.32-1.86 2.08-3.14 2.2v2.88c1.16-.04 2.24-.48 2.68-1.12v7.82h-2.58v2.52h8.42z" fill="#054a49"/><path d="m575.8 38.6483v-.32c0-1.24-.78-2-1.86-2-.94 0-1.74.64-1.74 1.58s.58 1.52 1.62 1.56c-.04.56-.54.88-1.48 1v1.28c2.12-.04 3.46-1.06 3.46-3.1z" fill="#054a49"/><path d="m588.554 35.6283v-.14c0-1.88-1.1-3-2.76-3.32 1.46-.42 2.4-1.46 2.4-3.06v-.06c0-2.4-1.76-3.86-4.72-3.86-3.14 0-4.76 1.98-5 4.08l2.92.34c.14-1 .76-1.94 2-1.94 1.1 0 1.66.62 1.66 1.6v.08c0 1.14-.62 1.78-2 1.78h-1.26v2.38h1.3c1.46 0 2.1.64 2.1 1.92v.14c0 1.18-.68 1.84-1.96 1.84-1.54 0-2.06-1.12-2.18-2.14l-2.98.32c.22 2.36 1.68 4.32 5.26 4.32 3.36 0 5.22-1.68 5.22-4.28z" fill="#054a49"/><path d="m601.311 35.6283v-.14c0-1.88-1.1-3-2.76-3.32 1.46-.42 2.4-1.46 2.4-3.06v-.06c0-2.4-1.76-3.86-4.72-3.86-3.14 0-4.76 1.98-5 4.08l2.92.34c.14-1 .76-1.94 2-1.94 1.1 0 1.66.62 1.66 1.6v.08c0 1.14-.62 1.78-2 1.78h-1.26v2.38h1.3c1.46 0 2.1.64 2.1 1.92v.14c0 1.18-.68 1.84-1.96 1.84-1.54 0-2.06-1.12-2.18-2.14l-2.98.32c.22 2.36 1.68 4.32 5.26 4.32 3.36 0 5.22-1.68 5.22-4.28z" fill="#054a49"/><path d="m614.727 35.2283v-.5c0-2.8-1.84-4.3-4.28-4.3-1.64 0-2.52.68-3.24 1.6v-.46c.06-2.6.98-3.86 2.38-3.86.94 0 1.5.62 1.62 1.4l3.06-.36c-.22-2-1.88-3.56-4.66-3.56-3.26 0-5.68 2.38-5.68 6.76v1.78c0 3.7 1.68 6.18 5.6 6.18 3.22 0 5.2-1.78 5.2-4.68zm-5.24 2.24c-1.3 0-2.1-.88-2.1-2.28v-.36c0-1.34.86-2.2 2.08-2.2 1.28 0 2.02.84 2.02 2.16v.46c0 1.34-.78 2.22-2 2.22z" fill="#054a49"/><path clip-rule="evenodd" d="m0 24.6883v23h91v-23zm0 100.7217v-23h106v23zm0 365.608v23h294v-23zm0 100.722v-23h336v23zm0 133.443v23h406v-23zm0 77.721v23h440v-23zm0-444.329v-23h205v23zm0-178.058v23h126v-23zm0 100.336v-23h163v23zm0 132.443v23h230v-23zm0 257.165v-23h373v23z" fill="url(#a)" fill-rule="evenodd"/></svg>